Patient4_TMGait_0pt3_03_left_31_EMG.mot
version=1
nRows=33
nColumns=33
inDegrees=no
endheader
time	1LAddLong	2LGlutMax	3LGlutMed	4LIliopsoas	5LSemiMemb	6LBicFemLong	7LRecFem	8LVastMed	9LVastLat	10LGasMed	11LTibAnt	12lTibPost	13LPeroneusLong	14LSol	15LExtDigLong	16LFlexDigLong	17RAddLong	18RGlutMax	19RGlutMed	20RIliopsoas	21RSemiMemb	22RBicFemLong	23RRecFem	24RVastMed	25RVastLat	26RGasMed	27RTibAnt	28RTibPost	29RPeroneusLong	30RSol	31RExtDigLong	32RFlexDigLong
55.685	-0.00473	0.16068	0.050049	0.028381	-0.003967	-0.044403	-0.64133	0.004883	0.08316	0.051422	0.008698	0.001221	0.058899	-0.061188	0.048218	0.003204	0.018921	-0.13367	0.089874	0.1062	-0.055084	0.1413	0.003357	-0.048218	0.017242	-0.008698	0.048523	-0.002289	0.14557	0.062714	-0.004425	-0.001984
55.686	-0.023651	0.11551	0.06546	0.008392	0.003967	-0.036926	-0.63675	-0.001221	0.066376	0.048981	0.00061	0.00351	0.018005	-0.086823	0.088196	-0.001984	0.017395	-0.17517	0.23361	0.073242	-0.011292	0.093689	0.023346	-0.091858	-0.000763	-0.008545	0.057678	-0.002136	-0.25345	0.048828	-0.003052	-0.004578
55.687	-0.044403	0.077972	0.018768	0.002594	-0.033417	0.019379	-0.5896	0.002594	-0.053406	0.073395	0.001831	0.005798	0.022583	-0.002289	0.059357	-0.006714	0.020752	-0.12894	0.21942	-0.026093	-0.016022	0.023804	0.04776	-0.091095	0.005798	-0.005951	0.057373	-0.006409	-0.20126	-0.069733	0.000153	-0.005798
55.688	-0.046997	0.005951	-0.03952	0.010986	-0.11429	-0.005646	-0.51636	0.003052	0.002594	0.061035	0.008087	-0.001373	0.21011	-0.018768	0.031433	-0.004578	-0.005035	-0.1506	0.19867	-0.12558	-0.005035	-0.02182	-0.017853	-0.067596	0.006714	-0.00412	0.041351	-0.001984	0.007477	-0.12726	-0.003662	-0.000916
55.689	-0.027161	0.014954	-0.089569	-0.005188	-0.19928	-0.13382	-0.48599	0.004425	0.060577	0.057983	0.017242	0.004883	0.10498	-0.057983	0.072174	-0.007019	-0.0177	-0.13825	0.033417	-0.041046	-0.007324	-0.010223	0.019836	-0.05188	0.013885	-0.00946	0.066986	0.000763	-0.036621	-0.10483	-0.009766	-0.004578
55.69	-0.026398	0.021667	-0.053711	0.014343	-0.25879	-0.091095	-0.47531	0.007019	0.00824	0.057983	0.012512	-0.001984	-0.11856	-0.031281	0.064545	-0.005646	-0.016174	-0.12192	-0.042114	-0.052795	0.021057	-0.012665	-0.050201	-0.027008	0.00061	-0.001221	0.075226	-0.001221	-0.25375	-0.048065	-0.005341	-0.012512
55.691	-0.018616	0.075073	0.018463	0.019226	-0.22232	0.058746	-0.46524	0.013123	-0.007935	0.14664	0.002136	0.009918	-0.047607	-0.018463	0.012512	-0.003967	-0.002747	-0.14008	-0.12985	-0.090942	0.048065	-0.056915	-0.031281	-0.019531	0.009003	0.004578	0.025787	0.00061	0.031433	-0.036469	-0.005798	-0.009155
55.692	0.002594	0.072174	-0.020294	0.016174	-0.13489	0.063171	-0.47577	0.014801	0.012512	0.23895	-0.001373	0.005035	-0.013885	-0.075836	-0.042419	-0.019379	0.015106	-0.12177	-0.1088	-0.097656	0.11002	-0.028076	-0.026855	-0.02243	-0.005646	0.005493	0.013733	-0.003967	0.058136	-0.036926	-0.004272	-0.012665
55.693	0.026855	0.13123	-0.086365	0.028076	-0.024719	0.015106	-0.4483	0.021667	0.021973	0.2269	-0.002136	0.006104	0.044861	-0.078125	-0.072937	-0.032654	0.008698	-0.13168	-0.17593	-0.027771	0.059204	0.03479	-0.012207	0.033569	0.024872	0.003815	0.04425	-0.000458	0.03479	-0.074463	-0.002441	-0.006714
55.694	0.055847	0.19577	-0.019836	0.007935	0.23544	-0.070801	-0.42191	0.018158	0.043488	0.13962	0.000305	0.008392	0.082703	-0.079498	-0.038452	-0.021515	0.007019	-0.15198	0.043335	0.033112	-0.050354	0.06485	-0.049133	0.071869	0.019073	0.008087	0.081482	-0.005341	-0.39352	-0.06073	-0.000916	-0.014191
55.695	0.063782	0.1944	-0.13214	0.015717	0.3038	-0.072632	-0.37521	0.00412	0.13794	0.006561	-0.007019	0.00824	0.093842	-0.091553	-0.002441	-0.009613	0.014191	-0.18967	0.069122	0.024414	-0.028839	0.029602	-0.027618	0.057983	0.014801	0.00351	0.049744	-0.006866	-0.19424	-0.077972	-0.000458	-0.023193
55.696	0.038147	0.23132	-0.045624	0.002899	0.19577	0.074921	-0.31784	0.004883	0.14343	-0.18646	-0.008698	0.005951	0.25269	0.012207	0.029449	-0.008392	0.011292	-0.1738	0.19058	-0.034637	-0.004272	0.041046	-0.026398	0.028839	0.014801	0.006409	0.003967	-0.007782	0.30106	-0.12436	-0.004272	-0.019531
55.697	0.014954	0.25635	0.17014	-0.002136	0.12054	0.14923	-0.31799	0.000153	0.075073	-0.10269	-0.003357	0.001221	0.44418	0.04837	0.032654	-0.022278	0.019379	-0.20325	0.25971	-0.12772	0.041504	0.082855	-0.024872	0.010376	0.011749	0.006561	0.027313	-0.004425	0.033417	-0.25513	-0.007629	-0.022888
55.698	0.009766	0.21835	0.19959	0.024872	0.071411	0.12512	-0.26367	-0.015869	-0.013123	-0.076599	0.000305	0.00473	0.84167	0.013885	0.037689	0.000763	0.015717	-0.23148	0.15259	-0.20859	0.059814	0.087433	0.01358	0.001373	0.002747	-0.005341	0.075226	-0.007019	-0.20859	-0.32074	-0.003662	-0.013733
55.699	0.006866	0.29831	0.21744	0.000916	0.021973	0.15152	-0.24612	-0.008698	-0.067596	-0.032196	0.010071	0.008545	-0.062866	-0.016327	0.054169	-0.008087	0.002594	-0.22919	0.23453	-0.092621	0.043488	0.063934	-0.027313	-0.058289	0.001373	-0.00885	0.075378	-0.005646	-0.22507	-0.14557	-0.005646	-0.012817
55.7	-0.010681	0.25131	0.16129	0.009613	-0.086975	0.22598	-0.2359	-0.000458	-0.10407	-0.002594	-0.018311	0.001984	-0.48401	-0.083923	0.014648	-0.005493	-0.011139	-0.17639	0.085754	0.010681	-0.013123	0.049591	-0.015717	-0.10803	0.015259	-0.007324	0.056152	-0.004883	-0.075378	0.19867	-0.003815	-0.003967
55.701	-0.016174	0.17029	0.13382	0.02243	-0.15518	0.21591	-0.2684	0.005341	-0.1004	-0.042419	-0.021515	0.009918	-0.64301	-0.080872	0.035248	-0.003357	0.007477	-0.13672	0.16098	0.13962	-0.10025	0.076141	0.006409	-0.059967	0.000153	-0.001373	0.012665	-0.008545	-0.5249	0.48218	-0.007019	-0.007935
55.702	-0.019836	0.091095	0.04425	0.004883	-0.18326	0.12085	-0.20676	0.013275	-0.032043	0.054016	0.010223	0.006561	-0.13473	-0.097809	-0.03479	-0.004883	0.011902	-0.087738	0.13565	0.14908	-0.043335	0.088959	0.025482	-0.019379	0.014191	-0.010834	-0.021973	0	0.016022	0.55283	-0.004578	-0.010071
55.703	-0.008545	0.036316	0.022736	0.016174	-0.078583	0.15518	-0.14069	-0.021667	0.008698	0.097656	0.061646	0.003967	0.06073	-0.013733	0.016174	0	0.009613	-0.11444	0.051727	-0.021667	0.12009	0.10651	0.015564	-0.005188	0.03479	-0.015259	-0.003815	-0.002594	0.50384	0.34164	-0.005798	-0.005951
55.704	-0.007935	-0.010681	-0.077515	0.004425	0.04776	0.19257	-0.11139	0.010986	0.039978	0.045013	0.047455	0.007629	0.11902	0.097351	0.041656	0.012054	-0.005035	-0.12039	0.005646	-0.083466	0.11307	0.070801	-0.025177	0.019379	0.024719	0.003052	0.045013	-0.000763	0.45685	0.002136	-0.003967	-0.00351
55.705	0.000305	-0.059509	-0.081177	0.018005	0.088806	0.40024	-0.037384	0.015106	0.063782	-0.007019	-0.011749	0.002899	0.32761	0.15213	-0.027161	0.013885	0.001678	-0.13855	-0.041962	-0.023499	0.052032	0.058899	-0.02594	-0.033722	0.024414	0.007019	0.032196	0.000458	0.45502	-0.21729	-0.002289	-0.005188
55.706	-0.014954	-0.040283	-0.045166	0.021057	0.10727	0.50507	-0.018005	0.007629	0.023804	0.026093	-0.007935	0.00351	-0.47104	0.11231	-0.091553	0.003967	0.010071	-0.19806	0.008698	-0.049286	-0.001984	0.030518	-0.001678	-0.002289	0.024567	-0.016937	0.050812	-0.003662	0.069885	-0.37567	-0.002441	-0.014343
55.707	-0.004883	-0.074615	-0.050049	0.02655	0.038147	0.34882	-0.009155	0.010834	-0.002747	0.10849	0.025635	0.00473	-0.45883	-0.018921	-0.17181	0.002136	0.012512	-0.10559	0.034332	0.025482	-0.019379	0.007019	-0.018768	0.014496	0.017395	-0.018463	0.058289	-0.001678	-0.063477	0.054474	0.001526	-0.015106
55.708	0.007629	-0.10315	-0.030365	0.033264	0.027313	-0.12116	-0.042725	-0.001984	-0.012207	0.10803	0.033112	0.005035	-0.15076	-0.12512	-0.1886	0.005188	0.011902	-0.086975	-0.054626	0.071869	-0.017548	-0.049438	-0.027924	-0.00824	0.03479	-0.0177	0.019684	0.016937	0.006714	0.22705	-0.004272	-0.013428
55.709	0.037842	-0.10056	-0.075378	0.006866	0.044556	-0.061951	-0.10605	-0.005341	0.062866	0.088196	0.026703	-0.003662	0.064087	-0.08606	-0.14771	0.002899	0.027161	-0.080261	-0.10651	0.051117	0.022888	-0.065002	-0.014801	-0.014954	0.02182	-0.001831	-0.001831	-0.004425	0.20783	-0.17303	0.000305	-0.013428
55.71	-0.037537	-0.090485	-0.055084	0.00351	-0.025177	0.011139	-0.081482	-0.004883	0.10834	0.15854	0.009766	0.000305	0.15045	-0.012817	-0.043793	0.021057	0.032654	-0.03418	-0.15793	0.03067	0.042419	0.018921	-0.044861	-0.016632	0.009308	0.003052	-0.005951	-0.11261	0.33218	-0.14832	-0.00885	-0.011749
55.711	-0.053711	-0.096283	-0.050507	-0.002136	-0.048981	-0.32059	-0.023651	0.003052	0.080872	0.15335	-0.005341	-0.002289	0.060425	-0.03479	0.1622	0.000763	0.018768	-0.044098	-0.097961	0.071716	0.061798	0.058441	0.000458	0.018311	0.017242	0.012817	0.014648	0.007629	0.19394	0.19913	-0.003815	-0.014038
55.712	0.077972	0.059814	0.006409	0.007629	-0.04776	-0.12619	0.046997	0.006866	0.099335	0.21637	-0.023193	0.00061	-0.11765	-0.10239	0.15305	0.004425	0.016174	-0.022583	0.031281	0.095978	-0.011292	0.044861	-0.037689	0.034637	0.027924	-0.014648	0.006866	0.032806	-0.56534	0.017395	-0.004578	-0.00885
55.713	-0.007172	0.13443	0.053711	0.003052	0.017548	0.075378	0.088806	0.001221	0.1561	0.2977	-0.021515	-0.000458	-0.12604	-0.12833	0.067139	0	-0.00412	-0.022125	0.12894	0.076599	-0.12085	0.078735	-0.053864	-0.015564	0.019989	-0.030975	-0.042114	0.009766	-0.24063	-0.042572	-0.007935	-0.002747
55.714	-0.006561	0.14801	0.007477	0.003204	0.070953	0.0914	0.11307	-0.002441	0.11871	-0.073853	-0.019836	0.004272	0.016174	-0.046387	0.11826	0.011902	-0.020142	-0.049133	0.17197	0.029449	-0.055847	0.06958	-0.027313	-0.019379	0.006714	-0.021973	-0.0354	0.003662	-0.066071	0.13504	-0.006409	-0.007935
55.715	-0.005493	0.072479	0.063324	0.023804	0.02533	0.084229	0.11673	-0.005951	0.09903	-0.21622	-0.014954	-0.011139	0.099335	-0.1152	0.08667	0.004425	-0.033264	-0.085907	-0.045624	-0.003662	-0.035553	0.13046	0.005951	-0.044098	0.011292	-0.006714	0.035706	0.024109	-0.11963	-0.095367	-0.003204	-0.010986
55.716	-0.007935	0.085907	0.066681	0.016174	-0.038757	0.20203	0.10025	0.001831	0.078735	-0.25543	-0.00946	-0.012054	0.037994	-0.13901	0.051575	0.003204	-0.017395	-0.032349	0.003204	-0.075531	-0.040588	0.14526	0.039673	-0.006866	0.006561	0.002441	0.036926	0.002747	0.037689	-0.092316	-0.003357	-0.005035
55.717	-0.005188	0.10056	-0.003357	0.014038	-0.066376	0.1532	0.074463	-0.00351	0.10819	-0.16724	0.01358	-0.019226	-0.082245	-0.10712	0.012512	0.016174	-0.023956	0.010834	0.1387	-0.078583	-0.019073	0.088348	-0.01236	0.034027	0.028076	0.006409	-0.00061	-0.003052	-0.16281	-0.32318	-0.004578	-0.003967
